<svg width="1280" height="640" viewBox="0 0 1280 640" fill="none" xmlns="http://www.w3.org/2000/svg">
<path d="M1280 0H0V640H1280V0Z" fill="url(#paint0_linear_1_18)"/>
<path d="M237.954 274.55L112.591 241L79 366.21L204.363 399.761L237.954 274.55Z" fill="white"/>
<path d="M142.54 340.779L116.559 315.575L103.146 329.367L143.2 368.224L215.853 293.516L201.78 279.863L142.54 340.779Z" fill="#51ADA3"/>
<path d="M302.414 354.203C302.414 350.425 301.063 347.481 298.361 345.371C295.708 343.262 291.017 341.078 284.287 338.821C277.557 336.564 272.055 334.381 267.781 332.271C253.878 325.451 246.927 316.079 246.927 304.156C246.927 298.219 248.646 292.994 252.085 288.48C255.573 283.917 260.486 280.384 266.823 277.882C273.16 275.33 280.283 274.054 288.192 274.054C295.905 274.054 302.807 275.428 308.899 278.176C315.04 280.924 319.805 284.849 323.194 289.952C326.584 295.005 328.279 300.795 328.279 307.321H302.488C302.488 302.954 301.137 299.569 298.435 297.165C295.782 294.76 292.172 293.558 287.603 293.558C282.985 293.558 279.325 294.589 276.623 296.649C273.971 298.661 272.644 301.237 272.644 304.377C272.644 307.125 274.118 309.627 277.066 311.884C280.013 314.092 285.196 316.398 292.614 318.802C300.032 321.157 306.123 323.709 310.888 326.457C322.482 333.13 328.279 342.329 328.279 354.056C328.279 363.428 324.742 370.788 317.668 376.135C310.594 381.484 300.891 384.157 288.561 384.157C279.866 384.157 271.981 382.612 264.907 379.521C257.882 376.381 252.576 372.112 248.99 366.715C245.453 361.269 243.685 355.013 243.685 347.947H269.623C269.623 353.688 271.097 357.932 274.044 360.68C277.041 363.379 281.88 364.728 288.561 364.728C292.835 364.728 296.2 363.82 298.656 362.005C301.162 360.14 302.414 357.54 302.414 354.203ZM425.694 275.526V345.666C425.694 353.614 424.001 360.508 420.611 366.347C417.222 372.137 412.356 376.553 406.021 379.595C399.683 382.637 392.191 384.157 383.544 384.157C370.478 384.157 360.186 380.772 352.67 374.001C345.154 367.23 341.322 357.957 341.174 346.181V275.526H367.185V346.696C367.481 358.423 372.935 364.286 383.544 364.286C388.898 364.286 392.952 362.814 395.704 359.87C398.454 356.926 399.83 352.143 399.83 345.519V275.526H425.694ZM481.771 344.856H467.772V382.686H441.905V275.526H484.131C496.853 275.526 506.801 278.348 513.973 283.99C521.147 289.633 524.733 297.606 524.733 307.91C524.733 315.368 523.208 321.55 520.163 326.457C517.166 331.363 512.451 335.337 506.016 338.379L528.415 381.582V382.686H500.71L481.771 344.856ZM467.772 324.911H484.131C489.042 324.911 492.727 323.635 495.184 321.084C497.689 318.483 498.941 314.877 498.941 310.265C498.941 305.653 497.689 302.046 495.184 299.446C492.679 296.796 488.993 295.472 484.131 295.472H467.772V324.911ZM580.513 353.541L601.883 275.526H630.771L594.663 382.686H566.367L530.552 275.526H559.219L580.513 353.541ZM705.195 337.275H664.518V362.814H712.563V382.686H638.654V275.526H712.711V295.472H664.518V318.067H705.195V337.275ZM762.376 322.041L782.125 275.526H810.053L775.494 344.194V382.686H749.259V344.194L714.775 275.526H742.555L762.376 322.041ZM834.887 382.686H821.254V269.639H834.887V382.686ZM871.584 382.686H857.95V269.639H871.584V382.686ZM942.691 382.686C941.906 381.116 941.266 378.319 940.777 374.296C934.439 380.87 926.872 384.157 918.08 384.157C910.22 384.157 903.761 381.95 898.7 377.534C893.689 373.069 891.184 367.427 891.184 360.606C891.184 352.314 894.329 345.887 900.616 341.323C906.952 336.711 915.844 334.405 927.292 334.405H940.554V328.149C940.554 323.39 939.13 319.612 936.28 316.815C933.431 313.969 929.233 312.546 923.679 312.546C918.817 312.546 914.739 313.773 911.449 316.226C908.156 318.68 906.511 321.648 906.511 325.132H892.805C892.805 321.157 894.206 317.33 897.007 313.65C899.856 309.921 903.686 306.978 908.5 304.819C913.365 302.66 918.693 301.58 924.491 301.58C933.678 301.58 940.874 303.886 946.081 308.499C951.29 313.062 953.992 319.367 954.188 327.413V364.065C954.188 371.376 955.12 377.19 956.989 381.508V382.686H942.691ZM920.069 372.308C924.343 372.308 928.396 371.204 932.23 368.997C936.06 366.789 938.837 363.918 940.554 360.385V344.047H929.869C913.166 344.047 904.815 348.929 904.815 358.693C904.815 362.961 906.239 366.298 909.089 368.702C911.938 371.106 915.599 372.308 920.069 372.308ZM988.451 303.052L988.895 313.062C994.986 305.407 1002.94 301.58 1012.77 301.58C1029.62 301.58 1038.12 311.074 1038.26 330.063V382.686H1024.63V329.989C1024.58 324.249 1023.26 320.005 1020.65 317.257C1018.1 314.509 1014.1 313.135 1008.64 313.135C1004.22 313.135 1000.34 314.313 996.999 316.668C993.661 319.023 991.056 322.114 989.191 325.942V382.686H975.557V303.052H988.451ZM1090.81 373.045C1095.67 373.045 1099.92 371.573 1103.55 368.628C1107.19 365.685 1109.2 362.004 1109.6 357.589H1122.49C1122.25 362.152 1120.67 366.494 1117.78 370.616C1114.88 374.737 1111 378.025 1106.13 380.478C1101.32 382.93 1096.21 384.157 1090.81 384.157C1079.95 384.157 1071.3 380.551 1064.87 373.339C1058.48 366.077 1055.29 356.166 1055.29 343.605V341.323C1055.29 333.571 1056.71 326.677 1059.56 320.642C1062.41 314.607 1066.49 309.921 1071.79 306.585C1077.15 303.249 1083.46 301.58 1090.73 301.58C1099.67 301.58 1107.09 304.254 1112.99 309.602C1118.93 314.951 1122.1 321.894 1122.49 330.431H1109.6C1109.2 325.279 1107.24 321.059 1103.7 317.772C1100.21 314.435 1095.89 312.767 1090.73 312.767C1083.8 312.767 1078.43 315.27 1074.59 320.274C1070.81 325.23 1068.92 332.418 1068.92 341.839V344.415C1068.92 353.59 1070.81 360.655 1074.59 365.611C1078.38 370.567 1083.78 373.045 1090.81 373.045ZM1170.91 384.157C1160.1 384.157 1151.31 380.625 1144.52 373.56C1137.74 366.445 1134.35 356.951 1134.35 345.077V342.575C1134.35 334.675 1135.85 327.634 1138.85 321.452C1141.9 315.22 1146.12 310.363 1151.53 306.879C1156.98 303.347 1162.87 301.58 1169.21 301.58C1179.57 301.58 1187.63 304.99 1193.38 311.811C1199.13 318.631 1202 328.395 1202 341.103V346.77H1147.99C1148.18 354.62 1150.47 360.974 1154.84 365.832C1159.26 370.64 1164.86 373.045 1171.64 373.045C1176.46 373.045 1180.53 372.063 1183.88 370.1C1187.21 368.138 1190.14 365.537 1192.64 362.299L1200.97 368.776C1194.29 379.03 1184.27 384.157 1170.91 384.157ZM1169.21 312.767C1163.71 312.767 1159.09 314.779 1155.36 318.802C1151.62 322.777 1149.31 328.37 1148.43 335.583H1188.37V334.552C1187.98 327.634 1186.11 322.286 1182.77 318.508C1179.43 314.681 1174.91 312.767 1169.21 312.767Z" fill="white"/>
<defs>
<linearGradient id="paint0_linear_1_18" x1="268.333" y1="-122.927" x2="1190.22" y2="626.939" gradientUnits="userSpaceOnUse">
<stop stop-color="#50A5A2"/>
<stop offset="1" stop-color="#53E1A5"/>
</linearGradient>
</defs>
</svg>
