<svg width="384" height="164" viewBox="0 0 384 164" fill="none" xmlns="http://www.w3.org/2000/svg">
<rect width="384" height="164" fill="url(#paint0_linear_0_1)"/>
<rect x="17.1292" y="53" width="43" height="43" transform="rotate(15 17.1292 53)" fill="white"/>
<path d="M27.0517 86.0988L18.4438 77.7379L14 82.313L27.2705 95.2027L51.3414 70.4207L46.6788 65.8918L27.0517 86.0988Z" fill="#51ADA3"/>
<path d="M80.0205 90.5518C80.0205 89.2985 79.5729 88.3219 78.6777 87.6221C77.7988 86.9222 76.2445 86.1979 74.0146 85.4492C71.7848 84.7005 69.9619 83.9762 68.5459 83.2764C63.9398 81.014 61.6367 77.9053 61.6367 73.9502C61.6367 71.9808 62.2064 70.2474 63.3457 68.75C64.5013 67.2363 66.1289 66.0645 68.2285 65.2344C70.3281 64.388 72.6882 63.9648 75.3086 63.9648C77.8639 63.9648 80.1507 64.4206 82.1689 65.332C84.2035 66.2435 85.7822 67.5456 86.9053 69.2383C88.0283 70.9147 88.5898 72.8353 88.5898 75H80.0449C80.0449 73.5514 79.5973 72.4284 78.7021 71.6309C77.8232 70.8333 76.627 70.4346 75.1133 70.4346C73.5833 70.4346 72.3708 70.7764 71.4756 71.46C70.5967 72.1273 70.1572 72.9818 70.1572 74.0234C70.1572 74.9349 70.6455 75.765 71.6221 76.5137C72.5986 77.2461 74.3158 78.0111 76.7734 78.8086C79.2311 79.5898 81.2493 80.4362 82.8281 81.3477C86.6693 83.5612 88.5898 86.613 88.5898 90.5029C88.5898 93.6117 87.418 96.0531 85.0742 97.8271C82.7305 99.6012 79.516 100.488 75.4307 100.488C72.5498 100.488 69.9375 99.9756 67.5938 98.9502C65.2663 97.9085 63.5085 96.4925 62.3203 94.7021C61.1484 92.8955 60.5625 90.8203 60.5625 88.4766H69.1562C69.1562 90.3809 69.6445 91.7887 70.6211 92.7002C71.6139 93.5954 73.2171 94.043 75.4307 94.043C76.8467 94.043 77.9616 93.7419 78.7754 93.1396C79.6055 92.5212 80.0205 91.6585 80.0205 90.5518ZM120.865 64.4531V87.7197C120.865 90.3564 120.304 92.6432 119.181 94.5801C118.058 96.5007 116.446 97.9655 114.347 98.9746C112.247 99.9837 109.765 100.488 106.9 100.488C102.571 100.488 99.1611 99.3652 96.6709 97.1191C94.1807 94.873 92.9111 91.7969 92.8623 87.8906V64.4531H101.48V88.0615C101.578 91.9515 103.385 93.8965 106.9 93.8965C108.674 93.8965 110.017 93.4082 110.929 92.4316C111.84 91.4551 112.296 89.8682 112.296 87.6709V64.4531H120.865ZM139.444 87.4512H134.806V100H126.236V64.4531H140.226C144.441 64.4531 147.737 65.389 150.113 67.2607C152.49 69.1325 153.678 71.7773 153.678 75.1953C153.678 77.6693 153.173 79.7201 152.164 81.3477C151.171 82.9753 149.609 84.2936 147.477 85.3027L154.898 99.6338V100H145.719L139.444 87.4512ZM134.806 80.835H140.226C141.853 80.835 143.074 80.4118 143.888 79.5654C144.718 78.7028 145.133 77.5065 145.133 75.9766C145.133 74.4466 144.718 73.2503 143.888 72.3877C143.058 71.5088 141.837 71.0693 140.226 71.0693H134.806V80.835ZM172.159 90.332L179.239 64.4531H188.81L176.847 100H167.472L155.606 64.4531H165.104L172.159 90.332ZM213.468 84.9365H199.991V93.4082H215.909V100H191.422V64.4531H215.958V71.0693H199.991V78.5645H213.468V84.9365ZM232.413 79.8828L238.956 64.4531H248.209L236.759 87.2314V100H228.067V87.2314L216.642 64.4531H225.846L232.413 79.8828ZM256.437 100H251.92V62.5H256.437V100ZM268.595 100H264.078V62.5H268.595V100ZM292.154 100C291.894 99.4792 291.682 98.5514 291.52 97.2168C289.42 99.3978 286.913 100.488 284 100.488C281.396 100.488 279.256 99.7559 277.579 98.291C275.919 96.8099 275.089 94.9382 275.089 92.6758C275.089 89.9251 276.131 87.793 278.214 86.2793C280.313 84.7493 283.259 83.9844 287.052 83.9844H291.446V81.9092C291.446 80.3304 290.974 79.0771 290.03 78.1494C289.086 77.2054 287.695 76.7334 285.855 76.7334C284.244 76.7334 282.893 77.1403 281.803 77.9541C280.712 78.7679 280.167 79.7526 280.167 80.9082H275.626C275.626 79.5898 276.09 78.3203 277.018 77.0996C277.962 75.8626 279.231 74.8861 280.826 74.1699C282.438 73.4538 284.203 73.0957 286.124 73.0957C289.168 73.0957 291.552 73.8607 293.277 75.3906C295.003 76.9043 295.898 78.9958 295.963 81.665V93.8232C295.963 96.2484 296.272 98.1771 296.891 99.6094V100H292.154ZM284.659 96.5576C286.075 96.5576 287.418 96.1914 288.688 95.459C289.957 94.7266 290.877 93.7744 291.446 92.6025V87.1826H287.906C282.372 87.1826 279.605 88.8021 279.605 92.041C279.605 93.457 280.077 94.5638 281.021 95.3613C281.965 96.1589 283.178 96.5576 284.659 96.5576ZM307.315 73.584L307.462 76.9043C309.48 74.3652 312.117 73.0957 315.372 73.0957C320.955 73.0957 323.771 76.2451 323.819 82.5439V100H319.303V82.5195C319.286 80.6152 318.847 79.2074 317.984 78.2959C317.138 77.3844 315.812 76.9287 314.005 76.9287C312.54 76.9287 311.254 77.3193 310.147 78.1006C309.041 78.8818 308.178 79.9072 307.56 81.1768V100H303.043V73.584H307.315ZM341.227 96.8018C342.838 96.8018 344.246 96.3135 345.45 95.3369C346.655 94.3604 347.322 93.1396 347.452 91.6748H351.725C351.643 93.1885 351.122 94.6289 350.162 95.9961C349.202 97.3633 347.916 98.4538 346.305 99.2676C344.71 100.081 343.017 100.488 341.227 100.488C337.63 100.488 334.765 99.292 332.633 96.8994C330.517 94.4906 329.459 91.2028 329.459 87.0361V86.2793C329.459 83.7077 329.931 81.4209 330.875 79.4189C331.819 77.417 333.17 75.8626 334.928 74.7559C336.702 73.6491 338.793 73.0957 341.202 73.0957C344.164 73.0957 346.622 73.9827 348.575 75.7568C350.545 77.5309 351.594 79.834 351.725 82.666H347.452C347.322 80.957 346.671 79.5573 345.499 78.4668C344.343 77.36 342.911 76.8066 341.202 76.8066C338.907 76.8066 337.125 77.6367 335.855 79.2969C334.602 80.9408 333.976 83.3252 333.976 86.4502V87.3047C333.976 90.3483 334.602 92.6921 335.855 94.3359C337.109 95.9798 338.899 96.8018 341.227 96.8018ZM367.765 100.488C364.184 100.488 361.271 99.3164 359.024 96.9727C356.778 94.6126 355.655 91.4632 355.655 87.5244V86.6943C355.655 84.0739 356.152 81.7383 357.145 79.6875C358.154 77.6204 359.553 76.0091 361.344 74.8535C363.15 73.6816 365.104 73.0957 367.203 73.0957C370.637 73.0957 373.307 74.2269 375.211 76.4893C377.115 78.7516 378.067 81.9906 378.067 86.2061V88.0859H360.172C360.237 90.6901 360.994 92.7979 362.442 94.4092C363.907 96.0042 365.763 96.8018 368.009 96.8018C369.604 96.8018 370.955 96.4762 372.062 95.8252C373.168 95.1742 374.137 94.3115 374.967 93.2373L377.726 95.3857C375.512 98.7874 372.192 100.488 367.765 100.488ZM367.203 76.8066C365.38 76.8066 363.85 77.474 362.613 78.8086C361.376 80.127 360.611 81.9824 360.318 84.375H373.551V84.0332C373.421 81.7383 372.802 79.9642 371.695 78.7109C370.589 77.4414 369.091 76.8066 367.203 76.8066Z" fill="white"/>
<defs>
<linearGradient id="paint0_linear_0_1" x1="80.5" y1="-31.5" x2="321.5" y2="198" gradientUnits="userSpaceOnUse">
<stop stop-color="#50A5A2"/>
<stop offset="1" stop-color="#53E1A5"/>
</linearGradient>
</defs>
</svg>
